<svg xmlns="http://www.w3.org/2000/svg" viewBox="0 0 32 32" width="32" height="32">
  <circle cx="16" cy="16" r="16" fill="#25D366"/>
  <path fill="#fff" d="M23.5 8.5A10.6 10.6 0 0 0 6.3 21.3L5 27l5.8-1.5a10.6 10.6 0 0 0 5.1 1.3 10.6 10.6 0 0 0 7.6-18.3zm-7.6 16.2a8.8 8.8 0 0 1-4.5-1.2l-.3-.2-3.3.9.9-3.2-.2-.3a8.8 8.8 0 1 1 7.4 4z"/>
  <path fill="#fff" d="M20.8 18.5c-.3-.1-1.6-.8-1.9-.9-.2-.1-.4-.1-.6.1-.2.2-.6.9-.8 1-.1.2-.3.2-.5.1-1.7-.8-2.8-1.5-3.9-3.3-.1-.2-.1-.4 0-.5l.5-.6c.1-.2.2-.3.1-.5-.1-.2-.7-1.6-.9-1.9-.1-.4-.3-.3-.5-.3h-.5c-.2 0-.5.1-.7.4-.2.3-.9 1-.9 2.4 0 1.4 1 2.8 1.2 3 .1.2 2 3.1 4.9 4.2 2.4.9 2.9.7 3.4.6.6-.1 1.6-.7 1.9-1.3.2-.6.2-1.1.2-1.2-.1-.1-.3-.2-.5-.3z"/>
</svg>
